<?xml version="1.0" standalone="no"?>
<!DOCTYPE svg PUBLIC "-//W3C//DTD SVG 20010904//EN"
 "http://www.w3.org/TR/2001/REC-SVG-20010904/DTD/svg10.dtd">
<svg version="1.0" xmlns="http://www.w3.org/2000/svg"
 width="400.000000pt" height="400.000000pt" viewBox="0 0 400.000000 400.000000"
 preserveAspectRatio="xMidYMid meet">
<metadata>
Created by potrace 1.11, written by Peter Selinger 2001-2013
</metadata>
<g transform="translate(0.000000,400.000000) scale(0.100000,-0.100000)"
fill="#000000" stroke="none">
<path d="M999 3354 c-28 -30 -163 -121 -227 -153 -23 -12 -89 -37 -145 -56
-56 -19 -101 -37 -101 -40 1 -4 16 -24 33 -45 l31 -38 48 12 c78 21 235 94
310 144 73 49 181 133 182 142 0 7 -85 60 -97 60 -5 0 -20 -12 -34 -26z"/>
<path d="M1541 3360 c-41 -11 -104 -35 -140 -52 l-66 -33 -3 -47 c-2 -27 0
-48 3 -48 3 0 37 16 76 36 198 99 427 100 629 1 36 -18 69 -34 73 -36 5 -1 7
19 5 45 -3 45 -6 50 -43 71 -95 54 -182 75 -325 79 -113 3 -147 1 -209 -16z"/>
<path d="M2456 3292 c-14 -21 -26 -41 -26 -44 0 -4 44 -21 98 -39 53 -18 133
-48 177 -67 97 -41 138 -54 129 -41 -3 5 1 20 8 32 32 49 30 55 -20 78 -80 36
-311 119 -333 119 -4 0 -18 -17 -33 -38z"/>
<path d="M1059 3144 c-70 -76 -229 -164 -368 -204 -45 -13 -81 -29 -81 -34 1
-6 16 -28 34 -49 l34 -38 79 26 c88 30 192 81 264 129 60 40 159 125 159 137
0 7 -80 59 -92 59 -2 0 -15 -12 -29 -26z"/>
<path d="M2472 3081 c-12 -21 -22 -43 -22 -48 0 -5 21 -14 46 -21 25 -7 96
-35 157 -62 60 -27 114 -47 119 -44 10 6 51 85 46 89 -15 15 -295 125 -318
125 -3 0 -16 -17 -28 -39z"/>
<path d="M1114 2937 c-104 -104 -288 -198 -466 -237 -32 -7 -58 -15 -58 -18 0
-14 67 -91 79 -92 21 0 150 39 201 62 167 74 311 174 394 275 18 22 17 22 -33
47 -28 14 -52 26 -53 25 -2 0 -31 -29 -64 -62z"/>
<path d="M2396 2875 l-25 -46 27 -10 c15 -6 59 -22 97 -36 84 -31 223 -95 276
-129 21 -13 41 -24 44 -24 11 0 56 83 51 96 -3 7 -42 32 -87 54 -87 44 -324
140 -345 140 -7 0 -24 -20 -38 -45z"/>
<path d="M974 2440 c-25 -33 -50 -57 -55 -54 -5 3 -6 -2 -3 -10 4 -11 20 -16
53 -16 44 0 50 4 109 63 34 34 62 66 62 70 0 4 -27 7 -59 7 l-60 0 -47 -60z"/>
<path d="M2875 2430 c64 -65 73 -70 112 -70 24 0 43 3 43 6 0 4 -20 35 -46 70
l-45 64 -67 0 -66 0 69 -70z"/>
<path d="M773 2393 c-41 -5 -125 -94 -159 -167 -66 -144 -26 -319 98 -431 34
-31 45 -36 71 -31 51 10 53 21 11 69 -130 147 -129 342 1 486 38 42 44 61 19
61 -8 0 -12 5 -9 10 3 6 5 9 3 8 -2 0 -17 -3 -35 -5z"/>
<path d="M3163 2386 c-17 -6 -34 -14 -37 -17 -4 -3 10 -24 29 -45 20 -21 50
-68 68 -103 58 -119 38 -265 -52 -373 -21 -26 -42 -44 -46 -40 -3 4 -5 0 -3
-8 2 -8 19 -23 38 -32 l35 -17 53 52 c111 109 150 257 102 390 -23 64 -75 137
-126 180 -26 21 -33 23 -61 13z"/>
<path d="M3791 2323 c-29 -100 -82 -206 -138 -276 -50 -63 -151 -143 -230
-182 l-54 -26 23 -28 c53 -65 57 -65 144 -14 93 55 214 173 265 258 60 103 99
207 99 268 0 53 -1 56 -31 66 -18 6 -37 11 -44 11 -7 0 -22 -35 -34 -77z"/>
<path d="M153 2275 c-13 -19 -23 -37 -23 -39 0 -3 22 -28 50 -56 54 -56 126
-147 155 -197 11 -18 22 -33 25 -33 3 0 21 15 38 33 l32 33 -56 75 c-55 72
-112 137 -170 191 l-29 27 -22 -34z"/>
<path d="M2138 2223 l-36 -38 24 -34 c34 -50 49 -130 34 -191 -20 -84 -80
-116 -108 -58 -11 23 -10 35 3 73 21 63 19 118 -4 146 -16 20 -23 22 -38 13
-32 -20 -53 -70 -60 -140 -5 -57 -11 -74 -34 -96 -31 -31 -64 -36 -73 -12 -12
30 -5 99 13 139 10 22 41 65 69 96 l51 56 -33 39 -34 39 -42 -40 c-118 -114
-168 -267 -121 -371 25 -55 64 -84 113 -84 43 0 92 21 106 46 7 13 13 11 41
-16 30 -31 35 -32 91 -28 70 5 102 29 141 106 20 40 24 61 24 142 0 82 -4 103
-26 150 -14 30 -35 65 -45 78 l-19 23 -37 -38z"/>
<path d="M1280 2155 l0 -95 98 0 97 0 -3 95 -3 95 -95 0 -94 0 0 -95z"/>
<path d="M2430 2155 l0 -95 95 0 95 0 0 95 0 95 -95 0 -95 0 0 -95z"/>
<path d="M693 1514 c3 -3 -17 -26 -44 -51 -99 -92 -140 -235 -104 -358 19 -65
54 -132 85 -160 11 -10 17 -23 13 -29 -3 -6 -2 -8 2 -3 5 4 19 -2 31 -14 18
-17 30 -20 58 -15 19 4 38 11 41 17 4 5 -9 27 -29 49 -75 83 -112 197 -96 296
10 59 52 150 68 147 6 -2 9 3 6 10 -2 7 9 26 25 43 39 37 39 51 -1 60 -49 11
-60 13 -55 8z"/>
<path d="M3203 1508 c-18 -6 -33 -14 -33 -18 0 -5 14 -23 31 -41 136 -146 140
-351 8 -494 -35 -37 -40 -48 -28 -56 8 -5 -461 -9 -1193 -9 l-1208 0 0 -55 0
-55 1220 0 1220 0 0 50 c0 42 3 50 19 50 27 0 118 102 149 167 24 51 27 70 27
153 -1 81 -5 103 -27 150 -22 48 -130 172 -147 169 -3 -1 -21 -6 -38 -11z"/>
</g>
</svg>
