<svg width="112" height="112" viewBox="0 0 112 112" xmlns="http://www.w3.org/2000/svg" xmlns:svg="http://www.w3.org/2000/svg"><defs
      /><g transform="matrix(0.97883936,0,0,0.97880411,1.1849955,1.1849528)"
     ><circle cx="56" cy="56" style="fill:#fff;stroke:gray;stroke-width:.377953;stroke-miterlimit:4;stroke-dasharray:none;stroke-opacity:1" r="56"
        /><g transform="matrix(0.99908914,0,0,1.2018874,0.05180763,-14.543099)"
       ><path d="m33.671812 44.250252q-1.398437.75-3.75 1.632812-2.101562.789063-3.171875 1.039063l-.507812-.859375q2.648437-.703125 5.242187-1.976563 3.328125-1.632812 4.632813-2.632812l1.109375.609375q-1.242188.945312-3.554688 2.1875zm.148438-5.015625q-2.257813 1.234375-5.8125 2.398437l-.585938-.890625q2.398438-.726562 4.570313-1.796875 2.664062-1.320312 3.765625-2.234375l1.109375.617188q-.953125.765625-3.046875 1.90625zm-.734375-4.007813q-1.984375 1.054688-5.34375 2.179688l-.585938-.890625q1.78125-.484375 4.078125-1.585938 2.789063-1.335937 3.789063-2.085937l1.109375.53125q-1.265625.90625-3.046875 1.851562z" style="stroke:#000;stroke-linejoin:round;stroke-opacity:1"
          /><path d="m40.749939 37.648689v-1.539062q3.265625-2.71875 7.28125-2.71875 3.984375.0 7.273437 2.71875v1.539062h-.07813q-1.1875-1.28125-2.898437-2.085937-2.03125-.953125-4.296875-.953125-2.28125.0-4.320313.953125-1.710937.804687-2.898437 2.085937z" style="stroke:#000;stroke-linejoin:round;stroke-opacity:1"
          /><path d="m78.398376 35.570564-.476562 1.148438Q73.335876 35.445564 67.070251 34.851814l.257813-1.078125q2.507812.203125 4.9375.570313 2.429687.367187 6.132812 1.226562zm-1.46875 4.445313-.351562 1.171875q-2.296875-.65625-4.367188-1.015625-2.0625-.359375-4.867187-.585938l.210937-1.085937q5.023438.390625 9.375 1.515625zm1.773438 5.617187-.5625 1.203125Q72.851501 45.195564 65.664001 44.609627l.226563-1.101563q1.429687.05469 3.703125.335938 2.28125.28125 4.210937.65625 1.929688.375 4.898438 1.132812z" style="stroke:#000;stroke-linejoin:round;stroke-opacity:1"
          /><path d="m11.312438 62.765877-1.070313.882812Q9.3593125 62.429939 7.4061875 60.336189 5.585875 58.383064 4.289 57.234627l.9296875-.804688q.984375.828125 3.2109375 3.15625 2.101563 2.203125 2.882813 3.179688z" style="stroke-linejoin:round;stroke:#000;stroke-opacity:1"
          /><path d="m22.812437 67.187752q-3.125-3.0625-3.125-7.1875t3.125-7.1875l.6875.6875q-2.875 2.6875-2.875 6.5t2.875 6.5z" style="stroke:#000;stroke-linejoin:round;stroke-opacity:1"
          /><path d="m34.406187 52.844002-2.164062 2.921875h-1.0625L32.6015 52.844002z" style="stroke-linejoin:round;stroke:#000;stroke-opacity:1"
          /><path d="m44.999939 58.937752v2.125h-2.125v-2.125z" style="stroke-linejoin:round;stroke:#000;stroke-opacity:1"
          /><path d="m55.999939 64.969002h-.04687q-.328125.578125-.9375.945312-.609375.367188-1.3125.367188-1.546875.0-2.421875-1.1875-.867188-1.1875-.867188-3.03125.0-1.289063.46875-2.414063t1.59375-2.429687h1.710938v.132812q-2.367188 1.890625-2.367188 4.804688.0 1.34375.484375 2.15625.492188.804687 1.414063.804687 1.125.0 1.601562-.953125v-4.710937h1.359375v4.710937q.523438.953125 1.585938.953125.929687.0 1.421875-.8125.492187-.820312.492187-2.148437.0-2.953125-2.367187-4.804688v-.132812h1.710937q1.132813 1.3125 1.59375 2.4375.46875 1.117187.46875 2.414062.0 1.859375-.875 3.039063-.867187 1.171875-2.414062 1.171875-.71875.0-1.351563-.367188-.632812-.367187-.945312-.945312z" style="stroke-linejoin:round;stroke:#000;stroke-opacity:1"
          /><path d="m68.999939 58.937752v2.125h-2.125v-2.125z" style="stroke-width:1;stroke-linejoin:round;stroke-miterlimit:4;stroke-dasharray:none;stroke:#000;stroke-opacity:1"
          /><path d="m81.523376 55.758064h-1.078125l-2.15625-2.914062h1.804688z" style="stroke-linejoin:round;stroke:#000;stroke-opacity:1"
          /><path d="m92.249939 60.000252q0 4.125-3.125 7.1875l-.6875-.6875q2.875-2.6875 2.875-6.5t-2.875-6.5l.6875-.6875q3.125 3.0625 3.125 7.1875z" style="stroke-linejoin:round;stroke:#000;stroke-opacity:1;stroke-width:1.00037334;stroke-miterlimit:4;stroke-dasharray:none"
          /><path d="m109.46869 53.984627q-.58594 5.390625-3.5 8.5625-2.91406 3.164062-7.812501 4.046875l-.445313-1.15625q3.265624-.617188 5.531254-2.242188 2.26562-1.625 3.46875-4.179687 1.20312-2.554688 1.35156-5.109375z" style="stroke-linejoin:round;stroke:#000;stroke-opacity:1;stroke-width:1.00037334;stroke-miterlimit:4;stroke-dasharray:none"
          /><path d="m30.812437 87.187752q-3.125-3.0625-3.125-7.1875t3.125-7.1875l.6875.6875q-2.875 2.6875-2.875 6.5t2.875 6.5z" style="stroke-linejoin:round;stroke:#000;stroke-opacity:1"
          /><path d="m47.999939 88.047127h-16v-1.140625h16z" style="stroke-linejoin:round;stroke:#000;stroke-opacity:1"
          /><path d="m63.999939 88.047127h-16v-1.140625h16z" style="stroke-linejoin:round;stroke:#000;stroke-opacity:1"
          /><path d="m79.999939 88.047127h-16v-1.140625h16z" style="stroke-linejoin:round;stroke:#000;stroke-opacity:1"
          /><path d="m84.249939 80.000252q0 4.125-3.125 7.1875l-.6875-.6875q2.875-2.6875 2.875-6.5t-2.875-6.5l.6875-.6875q3.125 3.0625 3.125 7.1875z" style="stroke-linejoin:round;stroke:#000;stroke-opacity:1"
          /></g></g></svg>